<svg xmlns="http://www.w3.org/2000/svg" xml:space="preserve" id="Layer_1" x="0" y="0" style="enable-background:new 0 0 247 96" version="1.1" viewBox="0 0 247 96"><style>.st0{fill:#002d74}.st1{fill:#009abf}.st3{fill:#213163}</style><path d="M34 5h12.6l-25 71.8H6L34 5z" class="st0"/><path d="M52.9 56.9c0 11.3 9.6 20 19.4 20h4.2L62.1 40.1c-4 5.5-9.2 9.9-9.2 16.8zM58.6 31.8c.2 0 .2 0 0 0L48.4 5H34l12 34.5c4.3-2.4 8.1-4.8 12.6-7.7z" class="st1"/><path d="M63.3 21.1c0-.2-.2-.2-.2-.2-.2 0-.2.2-.2.2 1.3 10.4-8.6 9.4-24.3 19.5C31.9 44.9 26.3 51 23 58.2c-3.5 8-4 16-1.3 23.3 1.3 3.7 3.4 7 5.8 9.9h.4c.2 0 .2-.2 0-.3C21.7 77.2 23.9 62 34 51c4.5-5.1 9.9-8.9 16.8-13.3 8-4.6 16-8.9 12.5-16.6z" style="fill:#93d500"/><path d="M88.5 41.9h-5.8l8.6-25.1h6.9l8.6 25.1H101l-6.2-19.3h-.2l-6.1 19.3zm-.4-9.8h13.4v4.2H88.1v-4.2zM109.2 48.9V23h5.1v3.2h.2c.2-.5.6-1 1-1.6.5-.5 1-1 1.8-1.3.8-.3 1.6-.5 2.7-.5 1.4 0 2.7.3 3.8 1.1 1.1.6 2.1 1.8 2.7 3.2.6 1.4 1.1 3.2 1.1 5.4 0 2.1-.3 3.8-1 5.3-.6 1.4-1.6 2.6-2.7 3.2-1.1.6-2.4 1.1-3.8 1.1-1 0-1.9-.2-2.6-.5-.6-.3-1.3-.8-1.8-1.3s-.8-1-1-1.6h-.2v10.1h-5.3zm5.1-16.4c0 1.1.2 2.1.5 2.9.3.8.8 1.4 1.3 1.9s1.3.6 2.1.6 1.6-.2 2.2-.6c.6-.5 1-1.1 1.3-1.9.3-.8.5-1.8.5-2.9 0-1.1-.2-2.1-.5-2.9-.3-.8-.8-1.4-1.3-1.9-.6-.5-1.3-.6-2.2-.6-.8 0-1.6.2-2.1.6-.5.5-1 1.1-1.3 1.9-.4.8-.5 1.7-.5 2.9zM131.1 48.9V23h5.1v3.2h.2c.2-.5.6-1 1-1.6.5-.5 1-1 1.8-1.3.8-.3 1.6-.5 2.7-.5 1.4 0 2.7.3 3.8 1.1 1.1.6 2.1 1.8 2.7 3.2.6 1.4 1.1 3.2 1.1 5.4 0 2.1-.3 3.8-1 5.3-.6 1.4-1.6 2.6-2.7 3.2-1.1.6-2.4 1.1-3.8 1.1-1 0-1.9-.2-2.6-.5-.6-.3-1.3-.8-1.8-1.3s-.8-1-1-1.6h-.2v10.1h-5.3zm5.1-16.4c0 1.1.2 2.1.5 2.9.3.8.8 1.4 1.3 1.9s1.3.6 2.1.6 1.6-.2 2.2-.6c.6-.5 1-1.1 1.3-1.9.3-.8.5-1.8.5-2.9 0-1.1-.2-2.1-.5-2.9-.3-.8-.8-1.4-1.3-1.9-.6-.5-1.3-.6-2.2-.6-.8 0-1.6.2-2.1.6-.5.5-1 1.1-1.3 1.9-.3.8-.5 1.7-.5 2.9zM152.2 41.9V23h5.1v3.4h.2c.3-1.1 1-2.1 1.8-2.7.8-.6 1.8-1 2.7-1h.8c.3 0 .6 0 .8.2v4.6c-.3 0-.6-.2-1-.2-.5 0-.8-.2-1.1-.2-.8 0-1.4.2-2.1.5-.6.3-1.1.8-1.4 1.4-.3.6-.5 1.3-.5 2.1v10.7h-5.3zM171.2 42.4c-1.3 0-2.2-.2-3.2-.6-1-.5-1.8-1.1-2.2-1.9-.5-.8-.8-1.9-.8-3s.2-1.9.6-2.6c.3-.6 1-1.3 1.6-1.8.6-.5 1.4-.8 2.2-1 .8-.2 1.8-.3 2.7-.5 1.1-.2 1.9-.2 2.7-.3.6-.2 1.1-.3 1.4-.5.3-.2.5-.5.5-1 0-.8-.3-1.4-.8-1.8-.5-.5-1.1-.6-2.1-.6s-1.8.2-2.2.6-1 1-1.1 1.6l-4.8-.3c.3-1.1.8-2.1 1.4-3 .8-.8 1.6-1.4 2.7-1.9s2.4-.6 4-.6c1.1 0 2.1.2 3 .3 1 .3 1.8.6 2.6 1.1.8.5 1.3 1.1 1.8 1.9.5.8.6 1.8.6 2.9V42h-5v-2.6h-.2c-.3.6-.6 1.1-1.3 1.6-.5.5-1.1.8-1.8 1.1-.5.1-1.5.3-2.3.3zm1.5-3.7c.8 0 1.4-.2 2.1-.5.6-.3 1.1-.8 1.4-1.3.3-.5.5-1.1.5-1.8v-1.9c-.2.2-.3.2-.6.3-.3.2-.6.2-1 .2-.3 0-.6.2-1.1.2-.5 0-.6.2-1 .2-.6.2-1.1.2-1.6.5-.5.2-.8.5-1.1.8-.3.3-.3.8-.3 1.3 0 .6.3 1.3.8 1.6.4.2 1.1.4 1.9.4zM188.5 20.6c-.8 0-1.4-.3-2.1-.8-.6-.5-.8-1.1-.8-1.9 0-.8.3-1.3.8-1.9.5-.5 1.3-.8 1.9-.8.8 0 1.4.3 2.1.8.6.5.8 1.1.8 1.9 0 .8-.3 1.3-.8 1.9-.5.7-1.1.8-1.9.8zm-2.7 21.3V23h5.3v18.8h-5.3zM210.9 28.5l-4.8.3c-.2-.5-.3-.8-.5-1.1-.3-.3-.6-.6-1.1-.8-.5-.2-1-.3-1.6-.3-.8 0-1.4.2-2.1.5-.5.3-.8.8-.8 1.3s.2.8.5 1.1c.3.3 1 .5 1.9.8l3.4.6c1.8.3 3.2 1 4.2 1.8s1.3 1.9 1.3 3.4c0 1.3-.3 2.4-1.1 3.2-.8.8-1.8 1.6-3 2.2-1.3.5-2.7.8-4.3.8-2.6 0-4.5-.5-5.9-1.6-1.4-1.1-2.4-2.4-2.6-4.3l5.1-.3c.2.8.5 1.3 1.1 1.8.6.3 1.4.6 2.2.6 1 0 1.6-.2 2.2-.5.6-.3.8-.8.8-1.4 0-.5-.2-.8-.6-1.1-.3-.3-1-.5-1.8-.6l-3.2-.6c-1.9-.3-3.2-1-4.2-1.9s-1.3-2.1-1.3-3.5c0-1.3.3-2.2 1-3.2.6-1 1.6-1.6 2.7-2.1s2.6-.6 4.2-.6c2.4 0 4.3.5 5.6 1.4 1.7 1 2.5 2.3 2.7 4.1zM220 42.4c-1.3 0-2.2-.2-3.2-.6-1-.5-1.8-1.1-2.2-1.9-.5-.8-.8-1.9-.8-3s.2-1.9.6-2.6c.3-.6 1-1.3 1.6-1.8.6-.5 1.4-.8 2.2-1 .8-.2 1.8-.3 2.7-.5 1.1-.2 1.9-.2 2.7-.3.6-.2 1.1-.3 1.4-.5.3-.2.5-.5.5-1 0-.8-.3-1.4-.8-1.8-.5-.5-1.1-.6-2.1-.6s-1.8.2-2.2.6c-.5.5-1 1-1.1 1.6l-4.8-.3c.3-1.1.8-2.1 1.4-3 .8-.8 1.6-1.4 2.7-1.9s2.4-.6 4-.6c1.1 0 2.1.2 3 .3 1 .3 1.8.6 2.6 1.1.8.5 1.3 1.1 1.8 1.9.5.8.6 1.8.6 2.9V42h-5v-2.6h-.2c-.3.6-.6 1.1-1.3 1.6-.5.5-1.1.8-1.8 1.1-.5.1-1.3.3-2.3.3zm1.4-3.7c.8 0 1.4-.2 2.1-.5.6-.3 1.1-.8 1.4-1.3.3-.5.5-1.1.5-1.8v-1.9c-.2.2-.3.2-.6.3-.3.2-.6.2-1 .2-.3 0-.6.2-1.1.2s-.6.2-1 .2c-.6.2-1.1.2-1.6.5-.5.2-.8.5-1.1.8-.3.3-.3.8-.3 1.3 0 .6.3 1.3.8 1.6.5.2 1.1.4 1.9.4zM240 16.8v25.1h-5.3V16.8h5.3zM87.1 51.8v25.1h-3V51.8h3zM96.5 65.5v11.3h-2.9V58h2.7v2.9h.3c.5-1 1.1-1.8 2.1-2.2 1-.5 2.1-.8 3.5-.8 1.3 0 2.4.3 3.4.8s1.8 1.3 2.2 2.4c.5 1.1.8 2.4.8 4v11.8h-2.9V65c0-1.4-.3-2.6-1.1-3.5-.8-.8-1.8-1.3-3.2-1.3-1 0-1.8.2-2.4.6-.8.5-1.3 1-1.8 1.8-.5 1-.7 1.8-.7 2.9zM126 62.3l-2.6.8c-.2-.5-.5-.8-.6-1.3-.3-.5-.8-.8-1.3-1-.5-.2-1.3-.5-2.1-.5-1.1 0-2.1.3-2.9.8-.8.5-1.1 1.1-1.1 2.1 0 .8.3 1.3.8 1.8s1.3.8 2.4 1.1l2.7.6c1.8.5 2.9 1 3.8 1.9.8.8 1.3 1.9 1.3 3.2 0 1.1-.3 2.1-1 2.9-.6.8-1.4 1.6-2.6 2.1-1.1.5-2.4.8-3.8.8-1.9 0-3.5-.5-4.8-1.3-1.3-.8-2.1-2.1-2.4-3.7l2.7-.6c.3 1 .8 1.8 1.4 2.2.8.5 1.8.8 2.9.8 1.3 0 2.4-.3 3.2-.8.8-.5 1.1-1.3 1.1-2.1 0-.6-.2-1.3-.6-1.6-.5-.5-1.1-.8-2.1-1l-3.2-.8c-1.8-.5-3-1.1-3.8-1.9-.8-.8-1.3-1.9-1.3-3.2 0-1.1.3-2.1 1-2.9.6-.8 1.4-1.4 2.4-1.9 1.1-.5 2.2-.6 3.5-.6 1.9 0 3.4.5 4.5 1.3 1.2.4 2 1.4 2.5 2.8zM138.3 58v2.4h-9.8V58h9.8zm-6.9-4.5h2.9v17.9c0 .8.2 1.4.3 1.8.3.5.5.6 1 .8.3.2.8.2 1.3.2h.8c.2 0 .3 0 .5-.2l.6 2.6c-.2 0-.5.2-.8.2-.3 0-.8.2-1.3.2-.8 0-1.6-.2-2.4-.5-.8-.3-1.4-1-1.9-1.6-.5-.6-.8-1.6-.8-2.7V53.5h-.2zM145 55c-.6 0-1.1-.2-1.4-.6-.5-.3-.6-.8-.6-1.4s.2-1 .6-1.4c.5-.3 1-.6 1.4-.6.6 0 1.1.2 1.4.6.5.3.6.8.6 1.4s-.2 1-.6 1.4c-.3.4-.8.6-1.4.6zm-1.4 21.8V58h2.9v18.8h-2.9zM160.8 58v2.4H151V58h9.8zm-6.9-4.5h2.9v17.9c0 .8.2 1.4.3 1.8.3.5.5.6 1 .8.3.2.8.2 1.3.2h.8c.2 0 .3 0 .5-.2l.5 2.9c-.2 0-.5.2-.8.2s-.8.2-1.3.2c-.8 0-1.6-.2-2.4-.5-.8-.3-1.4-1-1.9-1.6-.5-.6-.8-1.6-.8-2.7v-19zM176.5 69.2V58h2.9v18.8h-2.9v-3.2h-.2c-.5 1-1.1 1.8-2.1 2.4-1 .6-2.1 1-3.5 1-1.1 0-2.2-.3-3.2-.8s-1.6-1.3-2.1-2.4c-.5-1.1-.8-2.4-.8-4v-12h2.9v11.8c0 1.4.3 2.4 1.1 3.4.8.8 1.8 1.3 3 1.3.6 0 1.4-.2 2.2-.5.8-.3 1.4-1 1.9-1.8.6-.7.8-1.7.8-2.8zM191.7 58v2.4h-9.8V58h9.8zm-6.9-4.5h2.9v17.9c0 .8.2 1.4.3 1.8.3.5.5.6 1 .8.3.2.8.2 1.3.2h.8c.2 0 .3 0 .5-.2l.6 2.6c-.2 0-.5.2-.8.2-.3 0-.8.2-1.3.2-.8 0-1.6-.2-2.4-.5-.8-.3-1.4-1-1.9-1.6-.5-.6-.8-1.6-.8-2.7V53.5h-.2zM202.7 77.3c-1.8 0-3.4-.5-4.6-1.3-1.3-.8-2.4-1.9-3-3.4-.6-1.4-1.1-3.2-1.1-5.1 0-1.9.3-3.7 1.1-5.1.6-1.4 1.8-2.6 3-3.5 1.3-.8 2.7-1.3 4.5-1.3 1 0 1.9.2 2.9.5s1.8.8 2.6 1.6 1.4 1.8 1.9 2.9c.5 1.3.6 2.7.6 4.5v1.3H196v-2.6h11.5c0-1.1-.2-2.1-.6-2.9-.5-.8-1-1.4-1.8-1.9s-1.8-.8-2.7-.8c-1.1 0-2.1.3-3 .8-.8.6-1.4 1.3-1.9 2.2-.5 1-.6 1.9-.6 2.9v1.6c0 1.4.3 2.6.8 3.7.5 1 1.1 1.8 2.1 2.2 1 .5 1.9.8 3 .8.8 0 1.4-.2 2.1-.3.6-.2 1.1-.5 1.6-1s.8-1 1.1-1.6l2.7.8c-.3 1-.8 1.8-1.4 2.6-.6.8-1.6 1.3-2.6 1.6-1 .3-2.3.8-3.6.8z" class="st0"/><path d="M213.1 58.2v-.4h2.9v.4h-1.2v3.5h-.5v-3.5h-1.2zM216.8 57.8h.6l1.3 3.2 1.3-3.2h.6v3.9h-.4v-3l-1.2 3h-.4l-1.2-3v3h-.4v-3.9z" class="st3"/></svg>